# xmcd CD database file
#
# Track frame offsets:
#	150
#	22012
#	46530
#	71863
#	90817
#	121435
#
# Disc length: 1863 seconds
#
# Revision: 0
# Processed by: cddbd v1.5.1PL2 Copyright (c) Steve Scherf et al.
# Submitted via: CDex 1.51
#
DISCID=43074506
DTITLE=Gerry Mulligan - Night Lights
DYEAR=1963
DGENRE=Jazz
TTITLE0=Night Lights
TTITLE1=Carnival
TTITLE2=In the Wee Small_Hours
TTITLE3=Prelude in E  Minor
TTITLE4=Festive Minor
TTITLE5=Tell  Me When
EXTD=YEAR: 1963
EXTT0=
EXTT1=
EXTT2=
EXTT3=
EXTT4=
EXTT5=
PLAYORDER=
